<svg version="1.1" id="Layer_1" xmlns="http://www.w3.org/2000/svg" xmlns:xlink="http://www.w3.org/1999/xlink" x="0px" y="0px"
	 width="100%" viewBox="0 0 499 499" enable-background="new 0 0 499 499" xml:space="preserve">
<path fill="#000000" opacity="1.000000" stroke="none" 
	d="
M335.000000,500.000000 
	C223.333359,500.000000 112.166718,500.000000 1.000060,500.000000 
	C1.000040,333.666748 1.000040,167.333466 1.000020,1.000149 
	C167.333237,1.000099 333.666473,1.000099 499.999756,1.000050 
	C499.999847,167.333191 499.999847,333.666382 499.999939,499.999786 
	C445.166656,500.000000 390.333344,500.000000 335.000000,500.000000 
M55.858292,293.636322 
	C66.026062,305.801086 83.621910,305.918823 94.132004,293.565033 
	C97.765717,289.293854 101.292580,288.166290 106.765266,289.768158 
	C115.084579,292.203278 124.919014,288.540863 128.286636,280.626038 
	C130.613541,275.157166 134.282227,273.916382 139.652969,273.935730 
	C175.962341,274.066528 212.272400,273.998169 248.582245,274.009094 
	C286.389008,274.020447 324.196014,274.116882 362.002258,273.988098 
	C367.081146,273.970795 370.819336,274.769440 372.020050,280.451813 
	C372.300446,281.778809 373.499298,283.085693 374.592407,284.038269 
	C380.888885,289.525543 387.983734,292.177917 396.196136,288.955383 
	C400.239655,287.368713 402.762299,287.967834 405.387543,291.770905 
	C407.477783,294.798859 410.842773,297.092499 413.971771,299.228943 
	C421.644745,304.467987 438.130798,302.879059 443.553070,295.455170 
	C447.522644,290.020264 451.501923,289.313873 457.496979,290.371948 
	C464.894196,291.677429 470.712219,286.843384 472.579620,279.818085 
	C477.967133,259.549530 461.631653,242.073853 443.031250,239.558411 
	C430.911011,237.919312 418.847656,235.965836 406.382751,237.768890 
	C396.841217,239.149063 388.196869,241.228699 381.419464,248.575195 
	C378.034698,252.244171 376.620056,251.740402 374.947021,247.071503 
	C371.955200,238.722427 371.286804,230.260361 372.882477,221.503723 
	C377.467529,196.341660 382.400879,171.225113 386.112854,145.931534 
	C387.431549,136.945999 386.531097,127.349808 384.997620,118.311668 
	C383.494263,109.451004 378.499207,107.562897 370.290771,111.636200 
	C352.300659,120.563499 337.829132,134.154968 323.898773,148.214951 
	C315.141113,157.054138 307.435425,166.928391 298.910187,176.012054 
	C297.447876,177.570190 294.145508,178.282166 291.855194,178.011932 
	C285.775757,177.294617 279.773529,175.881973 273.760986,174.646667 
	C252.635117,170.306259 231.742966,172.115616 211.184525,177.726608 
	C205.261292,179.343231 202.079422,177.184158 198.922180,173.081345 
	C185.479813,155.613052 170.411377,139.648071 153.113525,126.004768 
	C145.602921,120.080940 137.260452,115.046623 128.789566,110.565231 
	C123.401245,107.714600 117.702202,110.599304 116.295250,116.513023 
	C114.774307,122.905876 113.799286,129.610596 113.898811,136.159332 
	C114.014236,143.754745 115.290680,151.372482 116.532410,158.903168 
	C119.995285,179.904251 123.792061,200.850250 127.265396,221.849686 
	C128.653091,230.239578 129.200134,238.647751 126.057457,246.925873 
	C124.219208,251.767960 123.061356,252.151123 119.306091,248.431625 
	C113.687576,242.866669 106.865524,239.475189 99.119301,238.281998 
	C90.289162,236.921875 81.431984,235.558136 72.436226,237.345871 
	C65.440315,238.736191 58.139969,239.031677 51.394058,241.149078 
	C38.586773,245.169037 28.112810,254.152145 27.563652,273.667053 
	C27.236160,285.304810 35.869904,292.928986 47.255924,290.262085 
	C50.835785,289.423584 53.456947,289.950012 55.858292,293.636322 
z"/>
<path fill="#060608" opacity="1.000000" stroke="none" 
	d="
M55.661819,293.338196 
	C53.456947,289.950012 50.835785,289.423584 47.255924,290.262085 
	C35.869904,292.928986 27.236160,285.304810 27.563652,273.667053 
	C28.112810,254.152145 38.586773,245.169037 51.394058,241.149078 
	C58.139969,239.031677 65.440315,238.736191 72.436226,237.345871 
	C81.431984,235.558136 90.289162,236.921875 99.119301,238.281998 
	C106.865524,239.475189 113.687576,242.866669 119.306091,248.431625 
	C123.061356,252.151123 124.219208,251.767960 126.057457,246.925873 
	C129.200134,238.647751 128.653091,230.239578 127.265396,221.849686 
	C123.792061,200.850250 119.995285,179.904251 116.532410,158.903168 
	C115.290680,151.372482 114.014236,143.754745 113.898811,136.159332 
	C113.799286,129.610596 114.774307,122.905876 116.295250,116.513023 
	C117.702202,110.599304 123.401245,107.714600 128.789566,110.565231 
	C137.260452,115.046623 145.602921,120.080940 153.113525,126.004768 
	C170.411377,139.648071 185.479813,155.613052 198.922180,173.081345 
	C202.079422,177.184158 205.261292,179.343231 211.184525,177.726608 
	C231.742966,172.115616 252.635117,170.306259 273.760986,174.646667 
	C279.773529,175.881973 285.775757,177.294617 291.855194,178.011932 
	C294.145508,178.282166 297.447876,177.570190 298.910187,176.012054 
	C307.435425,166.928391 315.141113,157.054138 323.898773,148.214951 
	C337.829132,134.154968 352.300659,120.563499 370.290771,111.636200 
	C378.499207,107.562897 383.494263,109.451004 384.997620,118.311668 
	C386.531097,127.349808 387.431549,136.945999 386.112854,145.931534 
	C382.400879,171.225113 377.467529,196.341660 372.882477,221.503723 
	C371.286804,230.260361 371.955200,238.722427 374.947021,247.071503 
	C376.620056,251.740402 378.034698,252.244171 381.419464,248.575195 
	C388.196869,241.228699 396.841217,239.149063 406.382751,237.768890 
	C418.847656,235.965836 430.911011,237.919312 443.031250,239.558411 
	C461.631653,242.073853 477.967133,259.549530 472.579620,279.818085 
	C470.712219,286.843384 464.894196,291.677429 457.496979,290.371948 
	C451.501923,289.313873 447.522644,290.020264 443.553070,295.455170 
	C438.130798,302.879059 421.644745,304.467987 413.971771,299.228943 
	C410.842773,297.092499 407.477783,294.798859 405.387543,291.770905 
	C402.762299,287.967834 400.239655,287.368713 396.196136,288.955383 
	C387.983734,292.177917 380.888885,289.525543 374.592407,284.038269 
	C373.499298,283.085693 372.300446,281.778809 372.020050,280.451813 
	C370.819336,274.769440 367.081146,273.970795 362.002258,273.988098 
	C324.196014,274.116882 286.389008,274.020447 248.582245,274.009094 
	C212.272400,273.998169 175.962341,274.066528 139.652969,273.935730 
	C134.282227,273.916382 130.613541,275.157166 128.286636,280.626038 
	C124.919014,288.540863 115.084579,292.203278 106.765266,289.768158 
	C101.292580,288.166290 97.765717,289.293854 94.132004,293.565033 
	C83.621910,305.918823 66.026062,305.801086 55.661819,293.338196 
M286.985901,238.472824 
	C286.699982,235.882660 284.492035,233.232422 287.969849,230.907761 
	C294.328613,226.657379 300.974243,225.486694 307.762451,229.187897 
	C313.997620,232.587601 317.679871,237.934174 317.523529,245.400482 
	C317.497772,246.630493 317.635437,247.863937 317.710449,249.350403 
	C327.020294,243.613541 327.202179,229.416916 318.577423,224.151230 
	C312.619019,220.513443 306.186279,219.268250 299.393158,220.160049 
	C281.286621,222.537003 275.341309,228.514984 271.992828,245.266861 
	C270.569611,252.386948 276.560364,257.856781 284.101868,256.685089 
	C283.468414,254.618347 282.972748,252.582809 282.223602,250.645248 
	C280.726807,246.773972 280.760040,243.510498 285.017395,241.343491 
	C285.810730,240.939667 286.260651,239.861160 286.985901,238.472824 
M188.891281,240.035934 
	C189.292679,235.015228 191.074615,231.015182 196.043274,228.729599 
	C202.051529,225.965851 209.886307,227.024384 215.179993,231.735641 
	C221.387665,237.260315 223.339615,244.134583 220.752792,251.037476 
	C220.058746,252.889526 219.605789,254.831909 218.921280,257.140411 
	C227.074875,255.381989 232.140762,250.275162 230.033829,244.948944 
	C227.412445,238.322281 224.058121,231.211487 218.987488,226.495438 
	C209.607559,217.771454 194.228836,218.024033 182.232712,225.203979 
	C174.697723,229.713821 175.142960,243.099030 182.994156,247.519852 
	C183.202820,247.637344 183.617126,247.389618 183.328217,247.459854 
	C185.211761,244.854782 186.808746,242.646057 188.891281,240.035934 
z"/>
<path fill="#000000" opacity="1.000000" stroke="none" 
	d="
M286.927490,238.783432 
	C286.260651,239.861160 285.810730,240.939667 285.017395,241.343491 
	C280.760040,243.510498 280.726807,246.773972 282.223602,250.645248 
	C282.972748,252.582809 283.468414,254.618347 284.101868,256.685089 
	C276.560364,257.856781 270.569611,252.386948 271.992828,245.266861 
	C275.341309,228.514984 281.286621,222.537003 299.393158,220.160049 
	C306.186279,219.268250 312.619019,220.513443 318.577423,224.151230 
	C327.202179,229.416916 327.020294,243.613541 317.710449,249.350403 
	C317.635437,247.863937 317.497772,246.630493 317.523529,245.400482 
	C317.679871,237.934174 313.997620,232.587601 307.762451,229.187897 
	C300.974243,225.486694 294.328613,226.657379 287.969849,230.907761 
	C284.492035,233.232422 286.699982,235.882660 286.927490,238.783432 
z"/>
<path fill="#000000" opacity="1.000000" stroke="none" 
	d="
M188.648499,240.236633 
	C186.808746,242.646057 185.211761,244.854782 183.328217,247.459854 
	C183.617126,247.389618 183.202820,247.637344 182.994156,247.519852 
	C175.142960,243.099030 174.697723,229.713821 182.232712,225.203979 
	C194.228836,218.024033 209.607559,217.771454 218.987488,226.495438 
	C224.058121,231.211487 227.412445,238.322281 230.033829,244.948944 
	C232.140762,250.275162 227.074875,255.381989 218.921280,257.140411 
	C219.605789,254.831909 220.058746,252.889526 220.752792,251.037476 
	C223.339615,244.134583 221.387665,237.260315 215.179993,231.735641 
	C209.886307,227.024384 202.051529,225.965851 196.043274,228.729599 
	C191.074615,231.015182 189.292679,235.015228 188.648499,240.236633 
z"/>
</svg>